<?xml version="1.0" encoding="UTF-8" standalone="no"?>
<!DOCTYPE svg PUBLIC "-//W3C//DTD SVG 1.1//EN" "http://www.w3.org/Graphics/SVG/1.1/DTD/svg11.dtd">
<!-- Создано Microsoft Visio, экспорт SVG CommActor.svg Страница-1 -->
<svg xmlns="http://www.w3.org/2000/svg" xmlns:xlink="http://www.w3.org/1999/xlink" xmlns:ev="http://www.w3.org/2001/xml-events"
		xmlns:v="http://schemas.microsoft.com/visio/2003/SVGExtensions/" width="0.350072in" height="0.406005in"
		viewBox="0 0 25.2052 29.2324" xml:space="preserve" color-interpolation-filters="sRGB" class="st3">
	<v:documentProperties v:langID="1049" v:metric="true" v:viewMarkup="false"/>

	<style type="text/css">
	<![CDATA[
		.st1 {fill:none;stroke:#ffffff;stroke-linecap:round;stroke-linejoin:round;stroke-width:0.5}
		.st2 {stroke:#ffffff;stroke-linecap:round;stroke-linejoin:round;stroke-width:0.5}
		.st3 {fill:none;fill-rule:evenodd;font-size:12px;overflow:visible;stroke-linecap:square;stroke-miterlimit:3}
	]]>
	</style>

	<g v:mID="0" v:index="1" v:groupContext="foregroundPage">
		<title>Страница-1</title>
		<v:pageProperties v:drawingScale="0.0393701" v:pageScale="0.0393701" v:drawingUnits="24" v:shadowOffsetX="8.50394"
				v:shadowOffsetY="-8.50394"/>
		<g id="group1-1" transform="translate(0.25,-0.25)" v:mID="1" v:groupContext="group">
			<title>Лист.1</title>
			<g id="shape2-2" v:mID="2" v:groupContext="shape" transform="translate(2.58992,-22.379)">
				<title>Лист.2</title>
				<ellipse cx="2.76853" cy="26.3037" rx="2.76853" ry="2.92868" class="st1"/>
			</g>
			<g id="shape3-4" v:mID="3" v:groupContext="shape" transform="translate(0.535845,-9.74321)">
				<title>Лист.3</title>
				<path d="M0 29.23 L0 20.52 A2.84001 1.78615 90 0 1 1.79 17.68" class="st2"/>
			</g>
			<g id="shape4-7" v:mID="4" v:groupContext="shape" transform="translate(-26.9104,14.6002) rotate(-90)">
				<title>Лист.4</title>
				<path d="M0 29.23 L1.7 29.23" class="st2"/>
			</g>
			<g id="shape5-10" v:mID="5" v:groupContext="shape" transform="translate(2.50061,-21.2926)">
				<title>Лист.5</title>
				<path d="M0 29.23 L6.07 29.23" class="st2"/>
			</g>
			<g id="shape6-13" v:mID="6" v:groupContext="shape" transform="translate(28.855,-13.1123) rotate(43.9319)">
				<title>Лист.6</title>
				<path d="M-0 29.23 a1.23358 0.397046 178.08 0 1 1.73614 -3.55271E-15" class="st2"/>
			</g>
			<g id="shape7-16" v:mID="7" v:groupContext="shape" transform="translate(1.22902E-13,-7.2869)">
				<title>Лист.7</title>
				<path d="M9.33 29.23 L0 29.23 L2.32 21.86" class="st2"/>
			</g>
			<g id="shape8-19" v:mID="8" v:groupContext="shape" transform="translate(7.59113,-7.47584)">
				<title>Лист.8</title>
				<path d="M0 19.79 L0 29.23 L1.79 29.23 L1.79 23.56" class="st2"/>
			</g>
			<g id="shape9-22" v:mID="9" v:groupContext="shape" transform="translate(15.6288,-7.47584)">
				<title>Лист.9</title>
				<path d="M0 23.56 L0 29.23 L1.79 29.23 L1.79 19.79" class="st2"/>
			</g>
			<g id="shape10-25" v:mID="10" v:groupContext="shape" transform="translate(9.73451,-19.7574)">
				<title>Лист.10</title>
				<path d="M0 29.23 L5.24 29.23 L5.89 29.23" class="st2"/>
			</g>
			<g id="shape11-28" v:mID="11" v:groupContext="shape" transform="translate(-16.5609,-4.11207) rotate(-55.7112)">
				<title>Лист.11</title>
				<path d="M-0 29.23 A2.68079 1.0634 169.39 0 1 3.49 29.23" class="st2"/>
			</g>
			<g id="shape12-31" v:mID="12" v:groupContext="shape" transform="translate(-6.96947,27.6765) rotate(-122.22)">
				<title>Лист.12</title>
				<path d="M0 28.82 A2.6035 1.27235 -165.2 0 0 3.35 28.82" class="st2"/>
			</g>
			<g id="shape13-34" v:mID="13" v:groupContext="shape" transform="translate(-19.8551,16.1354) rotate(-90)">
				<title>Лист.13</title>
				<path d="M0 29.23 L1.7 29.23" class="st2"/>
			</g>
			<g id="shape14-37" v:mID="14" v:groupContext="shape" transform="translate(-19.8551,16.1354) rotate(-90)">
				<title>Лист.14</title>
				<path d="M0 29.23 L1.7 29.23" class="st2"/>
			</g>
			<g id="shape15-40" v:mID="15" v:groupContext="shape" transform="translate(-13.6036,16.1354) rotate(-90)">
				<title>Лист.15</title>
				<path d="M0 29.23 L1.7 29.23" class="st2"/>
			</g>
			<g id="shape16-43" v:mID="16" v:groupContext="shape" transform="translate(-13.6036,16.3243) rotate(-90)">
				<title>Лист.16</title>
				<path d="M0 29.23 L1.89 29.23" class="st2"/>
			</g>
			<g id="shape17-46" v:mID="17" v:groupContext="shape" transform="translate(9.73451,-20.9856)">
				<title>Лист.17</title>
				<ellipse cx="2.76853" cy="26.3037" rx="2.76853" ry="2.92868" class="st1"/>
			</g>
			<g id="shape18-48" v:mID="18" v:groupContext="shape" transform="translate(22.7734,-9.36531)">
				<title>Лист.18</title>
				<path d="M0 23.56 L0 29.23 L1.79 29.23 L1.79 19.79" class="st2"/>
			</g>
			<g id="shape19-51" v:mID="19" v:groupContext="shape" transform="translate(16.8791,-21.6469)">
				<title>Лист.19</title>
				<path d="M0 29.23 L5.24 29.23 L5.89 29.23" class="st2"/>
			</g>
			<g id="shape20-54" v:mID="20" v:groupContext="shape" transform="translate(0.224264,25.7561) rotate(-122.22)">
				<title>Лист.20</title>
				<path d="M0 28.76 A2.63159 1.43728 -161.61 0 0 3.35 28.76" class="st2"/>
			</g>
			<g id="shape21-57" v:mID="21" v:groupContext="shape" transform="translate(-6.459,14.2459) rotate(-90)">
				<title>Лист.21</title>
				<path d="M0 29.23 L1.7 29.23" class="st2"/>
			</g>
			<g id="shape22-60" v:mID="22" v:groupContext="shape" transform="translate(-6.459,14.4349) rotate(-90)">
				<title>Лист.22</title>
				<path d="M0 29.23 L1.89 29.23" class="st2"/>
			</g>
			<g id="shape23-63" v:mID="23" v:groupContext="shape" transform="translate(16.8791,-22.875)">
				<title>Лист.23</title>
				<ellipse cx="2.76853" cy="26.3037" rx="2.76853" ry="2.92868" class="st1"/>
			</g>
			<g id="shape24-65" v:mID="24" v:groupContext="shape" transform="translate(35.3143,29.8535) rotate(140.379)">
				<title>Лист.24</title>
				<path d="M0 28.91 A1.96367 1.06098 -169.24 0 0 2.67 28.91" class="st2"/>
			</g>
			<g id="shape25-68" v:mID="25" v:groupContext="shape" transform="translate(37.4173,22.285) rotate(90)">
				<title>Лист.25</title>
				<path d="M0 29.23 L5.58 29.23" class="st2"/>
			</g>
			<g id="shape26-71" v:mID="26" v:groupContext="shape" transform="translate(2.67734,-1.35174) rotate(-0.128143)">
				<title>Лист.26</title>
				<path d="M0 29.23 L5.44 29.23" class="st2"/>
			</g>
			<g id="shape27-74" v:mID="27" v:groupContext="shape" transform="translate(31.9836,22.3334) rotate(90.0875)">
				<title>Лист.27</title>
				<path d="M0 29.23 L5.62 29.23" class="st2"/>
			</g>
			<g id="shape28-77" v:mID="28" v:groupContext="shape" transform="translate(34.7081,22.2016) rotate(89.8256)">
				<title>Лист.28</title>
				<path d="M0 29.23 L5.6 29.23" class="st2"/>
			</g>
			<g id="shape29-80" v:mID="29" v:groupContext="shape" transform="translate(-16.8445,29.2324) rotate(-90)">
				<title>Лист.29</title>
				<path d="M0 29.23 L8.33 29.23" class="st2"/>
			</g>
			<g id="shape30-83" v:mID="30" v:groupContext="shape" transform="translate(-19.8988,29.2324) rotate(-90)">
				<title>Лист.30</title>
				<path d="M0 29.23 L7.48 29.23" class="st2"/>
			</g>
			<g id="shape31-86" v:mID="31" v:groupContext="shape" transform="translate(-13.6294,29.2324) rotate(-90)">
				<title>Лист.31</title>
				<path d="M0 29.23 L7.48 29.23" class="st2"/>
			</g>
			<g id="shape32-89" v:mID="32" v:groupContext="shape" transform="translate(15.603,58.4648) rotate(180)">
				<title>Лист.32</title>
				<path d="M0 29.23 L6.27 29.23" class="st2"/>
			</g>
			<g id="shape33-92" v:mID="33" v:groupContext="shape" transform="translate(-9.68205,26.965) rotate(-90)">
				<title>Лист.33</title>
				<path d="M0 29.23 L8.33 29.23" class="st2"/>
			</g>
			<g id="shape34-95" v:mID="34" v:groupContext="shape" transform="translate(-12.7364,26.965) rotate(-90)">
				<title>Лист.34</title>
				<path d="M0 29.23 L5.21 29.23" class="st2"/>
			</g>
			<g id="shape35-98" v:mID="35" v:groupContext="shape" transform="translate(-6.46699,26.965) rotate(-90)">
				<title>Лист.35</title>
				<path d="M0 29.23 L7.48 29.23" class="st2"/>
			</g>
			<g id="shape36-101" v:mID="36" v:groupContext="shape" transform="translate(22.7654,56.1974) rotate(180)">
				<title>Лист.36</title>
				<path d="M0 29.23 L6.27 29.23" class="st2"/>
			</g>
		</g>
	</g>
</svg>
