<?xml version="1.0" encoding="UTF-8" standalone="no"?>
<!DOCTYPE svg PUBLIC "-//W3C//DTD SVG 1.1//EN" "http://www.w3.org/Graphics/SVG/1.1/DTD/svg11.dtd">
<!-- Создано Microsoft Visio, экспорт SVG hexagon_ideas.svg Страница-1 -->
<svg xmlns="http://www.w3.org/2000/svg" xmlns:xlink="http://www.w3.org/1999/xlink" xmlns:ev="http://www.w3.org/2001/xml-events"
		xmlns:v="http://schemas.microsoft.com/visio/2003/SVGExtensions/" width="2.81724in" height="2.4705in"
		viewBox="0 0 202.841 177.876" xml:space="preserve" color-interpolation-filters="sRGB" class="st7">
	<v:documentProperties v:langID="1049" v:metric="true" v:viewMarkup="false"/>

	<style type="text/css">
	<![CDATA[
		.st1 {visibility:visible}
		.st2 {fill:#000000;fill-opacity:0.36;filter:url(#filter_4.6666669845581);stroke:#000000;stroke-linecap:round;stroke-linejoin:round;stroke-opacity:0.36}
		.st3 {fill:#327dc2;stroke:#ffffff;stroke-linecap:round;stroke-linejoin:round;stroke-width:1}
		.st4 {fill:#ffffff;stroke:#ffffff;stroke-linecap:butt;stroke-width:0.75}
		.st5 {fill:none;stroke:none;stroke-linecap:round;stroke-linejoin:round;stroke-width:0.75}
		.st6 {fill:#ffffff;font-family:Calibri;font-size:1.16666em;font-weight:bold}
		.st7 {fill:none;fill-rule:evenodd;font-size:12px;overflow:visible;stroke-linecap:square;stroke-miterlimit:3}
	]]>
	</style>

	<defs id="Filters">
		<filter id="filter_4.6666669845581">
			<feGaussianBlur stdDeviation="4.6666669845581"/>
		</filter>
	</defs>
	<g v:mID="0" v:index="1" v:groupContext="foregroundPage">
		<title>Страница-1</title>
		<v:pageProperties v:drawingScale="0.0393701" v:pageScale="0.0393701" v:drawingUnits="24" v:shadowOffsetX="8.50394"
				v:shadowOffsetY="-8.50394"/>
		<g id="group5-1" transform="translate(0.500005,-15.2782)" v:mID="5" v:groupContext="group">
			<title>Лист.5</title>
			<g id="shape6-2" v:mID="6" v:groupContext="shape">
				<title>Лист.6</title>
				<g id="shadow6-3" v:groupContext="shadow" v:shadowOffsetX="7.77817" v:shadowOffsetY="-7.77817" v:shadowType="1"
						transform="matrix(1,0,0,1,7.77817,7.77817)" class="st1">
					<path d="M46.71 15.78 L140.29 15.8 L187.06 96.87 L140.3 177.86 L46.7 177.88 L0 96.87 L46.71 15.78 Z"
							class="st2"/>
				</g>
				<path d="M46.71 15.78 L140.29 15.8 L187.06 96.87 L140.3 177.86 L46.7 177.88 L0 96.87 L46.71 15.78 Z" class="st3"/>
			</g>
			<g id="group7-7" transform="translate(49.1255,-60.6346)" v:mID="7" v:groupContext="group">
				<title>Лист.7</title>
				<g id="shape8-8" v:mID="8" v:groupContext="shape" transform="translate(37.1759,-18.4461)">
					<title>Чат.629</title>
					<v:userDefs>
						<v:ud v:nameU="msvShapeCategories" v:prompt="" v:val="VT4(Icon)"/>
						<v:ud v:nameU="visVersion" v:prompt="" v:val="VT0(15):26"/>
					</v:userDefs>
					<path d="M38.92 131.34 L8.46 131.34 A8.46036 8.59573 -180 0 0 0 139.94 L0 157.13 A8.46036 8.59573 -180 0 0 8.46
								 165.73 L16.08 165.73 L13.35 176.01 A1.00349 1.01954 -180 1 0 14.88 177.15 L31.46 165.73 L38.92 165.73
								 A8.46036 8.59573 -180 0 0 47.39 157.13 L47.39 139.94 A8.46036 8.59573 -180 0 0 38.92 131.34 ZM44
								 157.13 A5.08317 5.1645 0 0 1 38.92 162.29 L30.42 162.29 A53385.6 54239.8 -180 0 0 18.28 170.65 A21492.1
								 21836 0 0 1 20.49 162.29 L8.46 162.29 A5.08317 5.1645 0 0 1 3.38 157.13 L3.38 139.94 A5.08317 5.1645
								 0 0 1 8.46 134.78 L38.92 134.78 A5.08317 5.1645 0 0 1 44 139.94 L44 157.13 Z" class="st4"/>
				</g>
				<g id="shape9-10" v:mID="9" v:groupContext="shape" transform="translate(23.6925,2.84217E-14)">
					<title>Чат.532</title>
					<v:userDefs>
						<v:ud v:nameU="msvShapeCategories" v:prompt="" v:val="VT4(Icon)"/>
						<v:ud v:nameU="visVersion" v:prompt="" v:val="VT0(15):26"/>
					</v:userDefs>
					<path d="M38.92 131.34 L8.46 131.34 A8.46036 8.59573 -180 0 0 0 139.94 L0 157.13 A8.46036 8.59573 -180 0 0 8.46
								 165.73 L16.08 165.73 L13.35 176.01 A1.00349 1.01954 -180 1 0 14.88 177.15 L31.46 165.73 L38.92 165.73
								 A8.46036 8.59573 -180 0 0 47.39 157.13 L47.39 139.94 A8.46036 8.59573 -180 0 0 38.92 131.34 ZM44
								 157.13 A5.08317 5.1645 0 0 1 38.92 162.29 L30.42 162.29 A53385.6 54239.8 -180 0 0 18.28 170.65 A21492.1
								 21836 0 0 1 20.49 162.29 L8.46 162.29 A5.08317 5.1645 0 0 1 3.38 157.13 L3.38 139.94 A5.08317 5.1645
								 0 0 1 8.46 134.78 L38.92 134.78 A5.08317 5.1645 0 0 1 44 139.94 L44 157.13 Z" class="st4"/>
				</g>
				<g id="shape10-12" v:mID="10" v:groupContext="shape" transform="translate(0,-29.5008)">
					<title>Чат.630</title>
					<v:userDefs>
						<v:ud v:nameU="msvShapeCategories" v:prompt="" v:val="VT4(Icon)"/>
						<v:ud v:nameU="visVersion" v:prompt="" v:val="VT0(15):26"/>
					</v:userDefs>
					<path d="M38.92 131.34 L8.46 131.34 A8.46036 8.59573 -180 0 0 0 139.94 L0 157.13 A8.46036 8.59573 -180 0 0 8.46
								 165.73 L16.08 165.73 L13.35 176.01 A1.00349 1.01954 -180 1 0 14.88 177.15 L31.46 165.73 L38.92 165.73
								 A8.46036 8.59573 -180 0 0 47.39 157.13 L47.39 139.94 A8.46036 8.59573 -180 0 0 38.92 131.34 ZM44
								 157.13 A5.08317 5.1645 0 0 1 38.92 162.29 L30.42 162.29 A53385.6 54239.8 -180 0 0 18.28 170.65 A21492.1
								 21836 0 0 1 20.49 162.29 L8.46 162.29 A5.08317 5.1645 0 0 1 3.38 157.13 L3.38 139.94 A5.08317 5.1645
								 0 0 1 8.46 134.78 L38.92 134.78 A5.08317 5.1645 0 0 1 44 139.94 L44 157.13 Z" class="st4"/>
				</g>
			</g>
			<g id="shape11-14" v:mID="11" v:groupContext="shape" transform="translate(41.1036,-17.5482)">
				<title>Лист.11</title>
				<desc>ИДЕИ</desc>
				<v:textBlock v:margins="rect(4,4,4,4)" v:tabSpace="42.5197"/>
				<v:textRect cx="52.4278" cy="164.789" width="104.86" height="26.1743"/>
				<rect x="0" y="151.702" width="104.856" height="26.1743" class="st5"/>
				<text x="35.18" y="168.99" class="st6" v:langID="1049"><v:paragraph v:horizAlign="1"/><v:tabList/>ИДЕИ</text>			</g>
		</g>
	</g>
</svg>
