<?xml version="1.0" encoding="UTF-8" standalone="no"?>
<!DOCTYPE svg PUBLIC "-//W3C//DTD SVG 1.1//EN" "http://www.w3.org/Graphics/SVG/1.1/DTD/svg11.dtd">
<!-- Создано Microsoft Visio, экспорт SVG Magnifier.svg Страница-1 -->
<svg xmlns="http://www.w3.org/2000/svg" xmlns:xlink="http://www.w3.org/1999/xlink" xmlns:ev="http://www.w3.org/2001/xml-events"
		xmlns:v="http://schemas.microsoft.com/visio/2003/SVGExtensions/" width="0.200545in" height="0.153288in"
		viewBox="0 0 14.4393 11.0367" xml:space="preserve" color-interpolation-filters="sRGB" class="st2">
	<v:documentProperties v:langID="1049" v:metric="true" v:viewMarkup="false"/>

	<style type="text/css">
	<![CDATA[
		.st1 {fill:#ffffff;stroke:none;stroke-linecap:butt;stroke-width:0.75}
		.st2 {fill:none;fill-rule:evenodd;font-size:12px;overflow:visible;stroke-linecap:square;stroke-miterlimit:3}
	]]>
	</style>

	<g v:mID="0" v:index="1" v:groupContext="foregroundPage">
		<title>Страница-1</title>
		<v:pageProperties v:drawingScale="0.0393701" v:pageScale="0.0393701" v:drawingUnits="24" v:shadowOffsetX="8.50394"
				v:shadowOffsetY="-8.50394"/>
		<g id="shape1-1" v:mID="1" v:groupContext="shape" transform="translate(0.75,-0.75)">
			<title>Поиск</title>
			<v:userDefs>
				<v:ud v:nameU="msvShapeCategories" v:prompt="" v:val="VT4(Icon)"/>
				<v:ud v:nameU="visVersion" v:prompt="" v:val="VT0(15):26"/>
			</v:userDefs>
			<path d="M6.36 1.5 A3.33077 3.27832 -180 0 0 3.03 4.78 A3.31312 3.26095 -180 0 0 3.74 6.8 a0.843086 0.829809 -180 0 0
						 -0.269183 0.147224 L0.21 9.67 a0.564907 0.556011 -180 0 0 -0.0502636 0.815693 L0.51 10.86 a0.531763 0.523389
						 -180 0 0 0.807851 -0.0190736 L4.15 7.62 a0.830905 0.81782 -180 0 0 0.152002 -0.263155 A3.31342 3.26124 -180
						 0 0 6.36 8.06 A3.33077 3.27832 -180 0 0 9.69 4.78 A3.33077 3.27832 -180 0 0 6.36 1.5 ZM6.36 7.46 A2.72846
						 2.68549 0 0 1 3.63 4.78 A2.72846 2.68549 0 0 1 6.36 2.1 A2.72846 2.68549 0 0 1 9.08 4.78 A2.72846 2.68549
						 0 0 1 6.36 7.46 Z" class="st1"/>
		</g>
	</g>
</svg>
