<?xml version="1.0" encoding="UTF-8" standalone="no"?>
<!DOCTYPE svg PUBLIC "-//W3C//DTD SVG 1.1//EN" "http://www.w3.org/Graphics/SVG/1.1/DTD/svg11.dtd">
<!-- Создано Microsoft Visio, экспорт SVG NoteIcon.svg Страница-1 -->
<svg xmlns="http://www.w3.org/2000/svg" xmlns:xlink="http://www.w3.org/1999/xlink" xmlns:ev="http://www.w3.org/2001/xml-events"
		xmlns:v="http://schemas.microsoft.com/visio/2003/SVGExtensions/" width="0.177501in" height="0.119472in"
		viewBox="0 0 12.7801 8.60198" xml:space="preserve" color-interpolation-filters="sRGB" class="st2">
	<v:documentProperties v:langID="1049" v:metric="true" v:viewMarkup="false"/>

	<style type="text/css">
	<![CDATA[
		.st1 {fill:#ffffff;stroke:none;stroke-linecap:butt;stroke-width:0.75}
		.st2 {fill:none;fill-rule:evenodd;font-size:12px;overflow:visible;stroke-linecap:square;stroke-miterlimit:3}
	]]>
	</style>

	<g v:mID="0" v:index="1" v:groupContext="foregroundPage">
		<title>Страница-1</title>
		<v:pageProperties v:drawingScale="0.0393701" v:pageScale="0.0393701" v:drawingUnits="24" v:shadowOffsetX="8.50394"
				v:shadowOffsetY="-8.50394"/>
		<g id="shape2-1" v:mID="2" v:groupContext="shape">
			<title>Правка.1644</title>
			<v:userDefs>
				<v:ud v:nameU="msvShapeCategories" v:prompt="" v:val="VT4(Icon)"/>
				<v:ud v:nameU="visVersion" v:prompt="" v:val="VT0(15):26"/>
			</v:userDefs>
			<path d="M8.64 1 L8.11 0.46 a0.472713 0.480276 -180 0 0 -0.678576 0.00923917 L2.81 5.16 L2.21 6.99 L4.02 6.4 L8.64 1.71
						 a0.504069 0.512134 -180 0 0 -0.00909367 -0.70823 ZM7.18 1.42 L7.71 1.95 L7.47 2.2 L6.94 1.66 L7.18 1.42
						 ZM2.94 6.25 A26.9053 27.3358 0 0 1 3.23 5.43 L3.29 5.37 L3.82 5.91 L3.76 5.97 A54.4796 55.3513 0 0 1 2.94
						 6.25 ZM4.06 5.66 L3.54 5.12 L6.7 1.91 L7.23 2.45 L4.06 5.66 ZM7.96 1.71 L7.43 1.17 L7.77 0.82 L8.3 1.36
						 A202.947 206.194 0 0 1 7.96 1.71 ZM6.59 4.24 L6.59 7.96 L0.63 7.96 L0.63 0.64 L4.7 0.64 L4.7 2.55 L4.94
						 2.55 L5.26 2.23 L5.02 2.23 L5.02 0.72 L5.88 1.6 L6.35 1.12 L5.25 0 L0 0 L0 8.6 L7.21 8.6 L7.21 3.61 L6.59
						 4.24 Z" class="st1"/>
		</g>
	</g>
</svg>
