<?xml version="1.0" encoding="UTF-8" standalone="no"?>
<!DOCTYPE svg PUBLIC "-//W3C//DTD SVG 1.1//EN" "http://www.w3.org/Graphics/SVG/1.1/DTD/svg11.dtd">
<!-- Создано Microsoft Visio, экспорт SVG OrgActor.svg Страница-1 -->
<svg xmlns="http://www.w3.org/2000/svg" xmlns:xlink="http://www.w3.org/1999/xlink" xmlns:ev="http://www.w3.org/2001/xml-events"
		xmlns:v="http://schemas.microsoft.com/visio/2003/SVGExtensions/" width="0.360325in" height="0.392008in"
		viewBox="0 0 25.9434 28.2245" xml:space="preserve" color-interpolation-filters="sRGB" class="st3">
	<v:documentProperties v:langID="1049" v:metric="true" v:viewMarkup="false"/>

	<style type="text/css">
	<![CDATA[
		.st1 {stroke:#ffffff;stroke-linecap:round;stroke-linejoin:round;stroke-width:0.5}
		.st2 {fill:none;stroke:#ffffff;stroke-linecap:round;stroke-linejoin:round;stroke-width:0.5}
		.st3 {fill:none;fill-rule:evenodd;font-size:12px;overflow:visible;stroke-linecap:square;stroke-miterlimit:3}
	]]>
	</style>

	<g v:mID="0" v:index="1" v:groupContext="foregroundPage">
		<title>Страница-1</title>
		<v:pageProperties v:drawingScale="0.0393701" v:pageScale="0.0393701" v:drawingUnits="24" v:shadowOffsetX="8.50394"
				v:shadowOffsetY="-8.50394"/>
		<g id="group37-1" transform="translate(0.25,-0.25)" v:mID="37" v:groupContext="group">
			<title>Лист.37</title>
			<g id="shape38-2" v:mID="38" v:groupContext="shape" transform="translate(-14.8109,-6.8) rotate(-53.8646)">
				<title>Лист.38</title>
				<path d="M0 28.22 A2.69208 1.48754 161.14 0 1 3.42 28.22" class="st1"/>
			</g>
			<g id="shape39-5" v:mID="39" v:groupContext="shape" transform="translate(-5.56211,25.1185) rotate(-123.69)">
				<title>Лист.39</title>
				<path d="M-0 27.77 A2.49011 1.38209 -160.95 0 0 3.16 27.77" class="st1"/>
			</g>
			<g id="shape40-8" v:mID="40" v:groupContext="shape" transform="translate(-18.5547,15.9552) rotate(-89.6716)">
				<title>Лист.40</title>
				<path d="M0 28.22 L4.43 28.22" class="st1"/>
			</g>
			<g id="shape41-11" v:mID="41" v:groupContext="shape" transform="translate(-12.4131,15.9552) rotate(-89.6716)">
				<title>Лист.41</title>
				<path d="M0 28.22 L4.43 28.22" class="st1"/>
			</g>
			<g id="shape42-14" v:mID="42" v:groupContext="shape" transform="translate(10.0458,-22.2849)">
				<title>Лист.42</title>
				<ellipse cx="2.71981" cy="25.5047" rx="2.71981" ry="2.71981" class="st2"/>
			</g>
			<g id="shape43-16" v:mID="43" v:groupContext="shape" transform="translate(2.05121,27.7911) rotate(-126.235)">
				<title>Лист.43</title>
				<path d="M0 27.91 a2.48529 0.977775 -169.51 0 0 3.23417 0" class="st1"/>
			</g>
			<g id="shape44-19" v:mID="44" v:groupContext="shape" transform="translate(-5.41321,15.9092) rotate(-90)">
				<title>Лист.44</title>
				<path d="M0 28.22 L2.6 28.22" class="st1"/>
			</g>
			<g id="shape45-22" v:mID="45" v:groupContext="shape" transform="translate(17.0208,-20.6618)">
				<title>Лист.45</title>
				<ellipse cx="2.71981" cy="25.5047" rx="2.71981" ry="2.71981" class="st2"/>
			</g>
			<g id="shape46-24" v:mID="46" v:groupContext="shape" transform="translate(2.98302,-20.9689)">
				<title>Лист.46</title>
				<ellipse cx="2.71981" cy="25.5047" rx="2.71981" ry="2.71981" class="st2"/>
			</g>
			<g id="shape47-26" v:mID="47" v:groupContext="shape" transform="translate(-25.417,14.2307) rotate(-90)">
				<title>Лист.47</title>
				<path d="M0 28.22 L1.58 28.22" class="st1"/>
			</g>
			<g id="shape48-29" v:mID="48" v:groupContext="shape" transform="translate(3.32177,-19.9547) rotate(-0.00944557)">
				<title>Лист.48</title>
				<path d="M0 28.22 L4.38 28.22" class="st1"/>
			</g>
			<g id="shape49-32" v:mID="49" v:groupContext="shape">
				<title>Лист.49</title>
				<rect x="0" y="16.117" width="25.4434" height="12.1076" class="st2"/>
			</g>
			<g id="shape50-34" v:mID="50" v:groupContext="shape" transform="translate(10.0458,-21.1765)">
				<title>Лист.50</title>
				<path d="M0 28.22 L1.99 28.22 L2.24 28.22" class="st1"/>
			</g>
			<g id="shape51-37" v:mID="51" v:groupContext="shape" transform="translate(13.5113,-21.1765)">
				<title>Лист.51</title>
				<path d="M0 28.22 L1.99 28.22 L2.24 28.22" class="st1"/>
			</g>
			<g id="shape52-40" v:mID="52" v:groupContext="shape" transform="translate(39.3659,-0.953632) rotate(73.6484)">
				<title>Лист.52</title>
				<path d="M0 28.22 L1.25 28.22" class="st1"/>
			</g>
			<g id="shape53-43" v:mID="53" v:groupContext="shape" transform="translate(40.5942,14.9385) rotate(106.352)">
				<title>Лист.53</title>
				<path d="M0 28.22 L1.25 28.22" class="st1"/>
			</g>
			<g id="shape54-46" v:mID="54" v:groupContext="shape" transform="translate(40.6977,11.1887) rotate(96.105)">
				<title>Лист.54</title>
				<path d="M0 28.22 L4.94 28.22" class="st1"/>
			</g>
			<g id="shape55-49" v:mID="55" v:groupContext="shape" transform="translate(41.1409,4.28526) rotate(82.1796)">
				<title>Лист.55</title>
				<path d="M0 28.22 L5.02 28.22" class="st1"/>
			</g>
			<g id="shape56-52" v:mID="56" v:groupContext="shape" transform="translate(32.0653,-6.85597) rotate(45)">
				<title>Лист.56</title>
				<path d="M0 28.22 L1.21 28.22" class="st1"/>
			</g>
			<g id="shape57-55" v:mID="57" v:groupContext="shape" transform="translate(33.2809,33.5845) rotate(136.528)">
				<title>Лист.57</title>
				<path d="M0 28.22 L1.24 28.22" class="st1"/>
			</g>
			<g id="shape58-58" v:mID="58" v:groupContext="shape" transform="translate(17.5472,-19.5417)">
				<title>Лист.58</title>
				<path d="M0 28.22 L1.4 28.22 L1.58 28.22" class="st1"/>
			</g>
			<g id="shape59-61" v:mID="59" v:groupContext="shape" transform="translate(20.3547,-19.5417)">
				<title>Лист.59</title>
				<path d="M0 28.22 L2.18 28.22 L2.46 28.22" class="st1"/>
			</g>
			<g id="shape60-64" v:mID="60" v:groupContext="shape" transform="translate(46.2093,0.68118) rotate(73.6484)">
				<title>Лист.60</title>
				<path d="M0 28.22 L1.25 28.22" class="st1"/>
			</g>
			<g id="shape61-67" v:mID="61" v:groupContext="shape" transform="translate(47.4376,16.5734) rotate(106.352)">
				<title>Лист.61</title>
				<path d="M0 28.22 L1.25 28.22" class="st1"/>
			</g>
			<g id="shape62-70" v:mID="62" v:groupContext="shape" transform="translate(47.5411,12.8235) rotate(96.105)">
				<title>Лист.62</title>
				<path d="M0 28.22 L4.94 28.22" class="st1"/>
			</g>
			<g id="shape63-73" v:mID="63" v:groupContext="shape" transform="translate(47.9843,5.92007) rotate(82.1796)">
				<title>Лист.63</title>
				<path d="M0 28.22 L5.02 28.22" class="st1"/>
			</g>
			<g id="shape64-76" v:mID="64" v:groupContext="shape" transform="translate(38.9087,-5.22115) rotate(45)">
				<title>Лист.64</title>
				<path d="M0 28.22 L1.21 28.22" class="st1"/>
			</g>
			<g id="shape65-79" v:mID="65" v:groupContext="shape" transform="translate(40.1243,35.2193) rotate(136.528)">
				<title>Лист.65</title>
				<path d="M0 28.22 L1.24 28.22" class="st1"/>
			</g>
			<g id="shape66-82" v:mID="66" v:groupContext="shape" transform="translate(36.2058,10.2386) rotate(90.8013)">
				<title>Лист.66</title>
				<path d="M0 28.22 L6.27 28.22" class="st1"/>
			</g>
			<g id="shape67-85" v:mID="67" v:groupContext="shape" transform="translate(45.7717,9.71227) rotate(90)">
				<title>Лист.67</title>
				<path d="M0 28.22 L6.4 28.22" class="st1"/>
			</g>
			<g id="shape68-88" v:mID="68" v:groupContext="shape" transform="translate(-3.63981,16.225) rotate(-90.2193)">
				<title>Лист.68</title>
				<path d="M0 28.22 L4.83 28.22" class="st1"/>
			</g>
			<g id="shape69-91" v:mID="69" v:groupContext="shape" transform="translate(-23.3653,3.45756) rotate(-63.3509)">
				<title>Лист.69</title>
				<path d="M0 28.22 L2.11 28.22" class="st1"/>
			</g>
			<g id="shape70-94" v:mID="70" v:groupContext="shape" transform="translate(-27.3287,15.9041) rotate(-89.9896)">
				<title>Лист.70</title>
				<path d="M0 28.22 L5.09 28.22" class="st1"/>
			</g>
			<g id="shape71-97" v:mID="71" v:groupContext="shape" transform="translate(23.3658,27.5382) rotate(133.913)">
				<title>Лист.71</title>
				<path d="M0 27.78 A2.50457 1.51282 -1.2 0 0 3.54 27.78" class="st1"/>
			</g>
		</g>
	</g>
</svg>
