<?xml version="1.0" encoding="UTF-8" standalone="no"?>
<!DOCTYPE svg PUBLIC "-//W3C//DTD SVG 1.1//EN" "http://www.w3.org/Graphics/SVG/1.1/DTD/svg11.dtd">
<!-- Создано Microsoft Visio, экспорт SVG PersActor.svg Страница-1 -->
<svg xmlns="http://www.w3.org/2000/svg" xmlns:xlink="http://www.w3.org/1999/xlink" xmlns:ev="http://www.w3.org/2001/xml-events"
		xmlns:v="http://schemas.microsoft.com/visio/2003/SVGExtensions/" width="0.159393in" height="0.385713in"
		viewBox="0 0 11.4763 27.7714" xml:space="preserve" color-interpolation-filters="sRGB" class="st3">
	<v:documentProperties v:langID="1049" v:metric="true" v:viewMarkup="false"/>

	<style type="text/css">
	<![CDATA[
		.st1 {stroke:#ffffff;stroke-linecap:round;stroke-linejoin:round;stroke-width:0.5}
		.st2 {fill:none;stroke:#ffffff;stroke-linecap:round;stroke-linejoin:round;stroke-width:0.5}
		.st3 {fill:none;fill-rule:evenodd;font-size:12px;overflow:visible;stroke-linecap:square;stroke-miterlimit:3}
	]]>
	</style>

	<g v:mID="0" v:index="1" v:groupContext="foregroundPage">
		<title>Страница-1</title>
		<v:pageProperties v:drawingScale="0.0393701" v:pageScale="0.0393701" v:drawingUnits="24" v:shadowOffsetX="8.50394"
				v:shadowOffsetY="-8.50394"/>
		<g id="group72-1" transform="translate(0.535891,-0.25)" v:mID="72" v:groupContext="group">
			<title>Лист.72</title>
			<g id="shape73-2" v:mID="73" v:groupContext="shape" transform="translate(-0.0895164,-7.59755)">
				<title>Лист.73</title>
				<path d="M0 18.17 L0 27.77 L1.99 27.77 L1.99 22.01" class="st1"/>
			</g>
			<g id="shape74-5" v:mID="74" v:groupContext="shape" transform="translate(8.53801,-7.59755)">
				<title>Лист.74</title>
				<path d="M0 22.01 L0 27.77 L1.9 27.77 L1.9 18.17" class="st1"/>
			</g>
			<g id="shape75-8" v:mID="75" v:groupContext="shape" transform="translate(2.2768,-20.0736)">
				<title>Лист.75</title>
				<path d="M0 27.77 L5.57 27.77 L6.26 27.77" class="st1"/>
			</g>
			<g id="shape76-11" v:mID="76" v:groupContext="shape" transform="translate(-22.4291,-5.85322) rotate(-53.5535)">
				<title>Лист.76</title>
				<path d="M0 27.77 A2.90509 1.68956 158.73 0 1 3.66 27.77" class="st1"/>
			</g>
			<g id="shape77-14" v:mID="77" v:groupContext="shape" transform="translate(-12.2484,25.5255) rotate(-123.385)">
				<title>Лист.77</title>
				<path d="M0 27.17 A2.80456 1.79538 -151.73 0 0 3.45 27.17" class="st1"/>
			</g>
			<g id="shape78-17" v:mID="78" v:groupContext="shape" transform="translate(-22.6486,27.7714) rotate(-90)">
				<title>Лист.78</title>
				<path d="M0 27.77 L8.46 27.77" class="st1"/>
			</g>
			<g id="shape79-20" v:mID="79" v:groupContext="shape" transform="translate(-25.874,14.4636) rotate(-90)">
				<title>Лист.79</title>
				<path d="M0 27.77 L1.73 27.77" class="st1"/>
			</g>
			<g id="shape80-23" v:mID="80" v:groupContext="shape" transform="translate(-25.874,14.4636) rotate(-90)">
				<title>Лист.80</title>
				<path d="M0 27.77 L1.73 27.77" class="st1"/>
			</g>
			<g id="shape81-26" v:mID="81" v:groupContext="shape" transform="translate(-19.2334,14.4636) rotate(-90)">
				<title>Лист.81</title>
				<path d="M0 27.77 L1.73 27.77" class="st1"/>
			</g>
			<g id="shape82-29" v:mID="82" v:groupContext="shape" transform="translate(-19.2334,14.6556) rotate(-90)">
				<title>Лист.82</title>
				<path d="M0 27.77 L1.92 27.77" class="st1"/>
			</g>
			<g id="shape83-32" v:mID="83" v:groupContext="shape" transform="translate(2.2768,-21.3212)">
				<title>Лист.83</title>
				<ellipse cx="2.94087" cy="24.7963" rx="2.94087" ry="2.97506" class="st2"/>
			</g>
			<g id="shape84-34" v:mID="84" v:groupContext="shape" transform="translate(-25.893,27.7714) rotate(-90)">
				<title>Лист.84</title>
				<path d="M0 27.77 L7.6 27.77" class="st1"/>
			</g>
			<g id="shape85-37" v:mID="85" v:groupContext="shape" transform="translate(-19.2334,27.7714) rotate(-90)">
				<title>Лист.85</title>
				<path d="M0 27.77 L7.6 27.77" class="st1"/>
			</g>
			<g id="shape86-40" v:mID="86" v:groupContext="shape" transform="translate(8.53801,55.5427) rotate(180)">
				<title>Лист.86</title>
				<path d="M0 27.77 L6.66 27.77" class="st1"/>
			</g>
		</g>
	</g>
</svg>
