<?xml version="1.0" encoding="UTF-8" standalone="no"?>
<!DOCTYPE svg PUBLIC "-//W3C//DTD SVG 1.1//EN" "http://www.w3.org/Graphics/SVG/1.1/DTD/svg11.dtd">
<!-- Создано Microsoft Visio, экспорт SVG PhotoIcon.svg Страница-1 -->
<svg xmlns="http://www.w3.org/2000/svg" xmlns:xlink="http://www.w3.org/1999/xlink" xmlns:ev="http://www.w3.org/2001/xml-events"
		xmlns:v="http://schemas.microsoft.com/visio/2003/SVGExtensions/" width="0.483542in" height="0.312537in"
		viewBox="0 0 34.815 22.5027" xml:space="preserve" color-interpolation-filters="sRGB" class="st2">
	<v:documentProperties v:langID="1049" v:metric="true" v:viewMarkup="false"/>

	<style type="text/css">
	<![CDATA[
		.st1 {fill:#ffffff;stroke:none;stroke-linecap:butt;stroke-width:0.75}
		.st2 {fill:none;fill-rule:evenodd;font-size:12px;overflow:visible;stroke-linecap:square;stroke-miterlimit:3}
	]]>
	</style>

	<g v:mID="0" v:index="1" v:groupContext="foregroundPage">
		<title>Страница-1</title>
		<v:pageProperties v:drawingScale="0.0393701" v:pageScale="0.0393701" v:drawingUnits="24" v:shadowOffsetX="8.50394"
				v:shadowOffsetY="-8.50394"/>
		<g id="shape34-1" v:mID="34" v:groupContext="shape">
			<title>Фотографии</title>
			<v:userDefs>
				<v:ud v:nameU="msvShapeCategories" v:prompt="" v:val="VT4(Icon)"/>
				<v:ud v:nameU="visVersion" v:prompt="" v:val="VT0(15):26"/>
			</v:userDefs>
			<path d="M16.37 4.89 A6.74078 6.84863 -180 0 0 9.63 11.74 A6.74078 6.84863 -180 0 0 16.37 18.59 A6.74078 6.84863 -180
						 0 0 23.11 11.74 A6.74078 6.84863 -180 0 0 16.37 4.89 ZM20.46 15.89 A5.74213 5.83401 0 0 1 16.37 17.61 A5.74213
						 5.83401 0 0 1 12.28 15.89 A5.74213 5.83401 0 0 1 10.59 11.74 A5.78363 5.87617 0 0 1 16.37 5.87 A5.78363
						 5.87617 0 0 1 22.15 11.74 A5.74213 5.83401 0 0 1 20.46 15.89 ZM16.37 7.83 A3.85205 3.91368 -180 0 0 12.52
						 11.74 A3.85205 3.91368 -180 0 0 16.37 15.65 A3.85205 3.91368 -180 0 0 20.22 11.74 A3.85205 3.91368 -180
						 0 0 16.37 7.83 ZM16.37 14.68 A2.89243 2.93871 0 0 1 13.48 11.74 A2.89243 2.93871 0 0 1 16.37 8.81 A2.89243
						 2.93871 0 0 1 19.26 11.74 A2.89243 2.93871 0 0 1 16.37 14.68 ZM27.93 0.98 L9.63 0.98 L9.63 0 L4.81 0 L4.81
						 0.98 L2.89 0.98 A2.8974 2.94376 -180 0 0 0 3.91 L0 19.57 A2.8974 2.94376 -180 0 0 2.89 22.5 L27.93 22.5
						 A2.8974 2.94376 -180 0 0 30.82 19.57 L30.82 3.91 A2.8974 2.94376 -180 0 0 27.93 0.98 ZM1.93 5.87 L4.81 5.87
						 a0.963938 0.979361 0 0 1 0.962969 0.978377 L5.78 16.63 L5.49 17.32 L4.81 17.61 L1.93 17.61 L1.93 5.87 ZM28.89
						 19.57 a0.97594 0.991555 0 0 1 -0.962969 0.978377 L2.89 20.55 a0.97594 0.991555 0 0 1 -0.962969 -0.978377
						 L1.93 18.59 L4.81 18.59 A1.9316 1.96251 -180 0 0 6.74 16.63 L6.74 6.85 A1.9316 1.96251 -180 0 0 4.81 4.89
						 L1.93 4.89 L1.93 3.91 a0.97594 0.991555 0 0 1 0.962969 -0.978377 L23.11 2.94 L23.11 4.89 A1.9316 1.96251
						 -180 0 0 25.04 6.85 L28.89 6.85 L28.89 19.57 ZM28.89 5.87 L25.04 5.87 L24.36 5.58 L24.07 4.89 L24.07 2.94
						 L27.93 2.94 a0.97594 0.991555 0 0 1 0.962969 0.978377 L28.89 5.87 Z" class="st1"/>
		</g>
	</g>
</svg>
